<svg xmlns="http://www.w3.org/2000/svg" width="58.44" height="58.44" viewBox="0 0 58.44 58.44">
  <g id="Agrupar_10" data-name="Agrupar 10" transform="translate(-464.561 -7950.86)">
    <g id="instagram" transform="translate(464.561 7950.86)">
      <path id="Caminho_10" data-name="Caminho 10" d="M218.186,212.593A5.593,5.593,0,1,1,212.593,207,5.593,5.593,0,0,1,218.186,212.593Zm0,0" transform="translate(-183.373 -183.373)" fill="#fff"/>
      <path id="Caminho_11" data-name="Caminho 11" d="M162.32,139.348a5.556,5.556,0,0,0-3.184-3.184,9.283,9.283,0,0,0-3.115-.577c-1.77-.081-2.3-.1-6.78-.1s-5.011.017-6.78.1a9.289,9.289,0,0,0-3.115.578,5.559,5.559,0,0,0-3.185,3.184,9.286,9.286,0,0,0-.577,3.116c-.081,1.769-.1,2.3-.1,6.78s.017,5.011.1,6.78a9.283,9.283,0,0,0,.577,3.115,5.556,5.556,0,0,0,3.184,3.184,9.272,9.272,0,0,0,3.116.578c1.769.081,2.3.1,6.78.1s5.012-.017,6.78-.1a9.272,9.272,0,0,0,3.116-.578,5.556,5.556,0,0,0,3.184-3.184,9.292,9.292,0,0,0,.578-3.115c.081-1.77.1-2.3.1-6.78s-.017-5.011-.1-6.78a9.271,9.271,0,0,0-.578-3.116Zm-13.08,18.511a8.616,8.616,0,1,1,8.616-8.616A8.616,8.616,0,0,1,149.241,157.86ZM158.2,142.3a2.014,2.014,0,1,1,2.014-2.014A2.014,2.014,0,0,1,158.2,142.3Zm0,0" transform="translate(-120.02 -120.024)" fill="#fff"/>
      <path id="Caminho_12" data-name="Caminho 12" d="M29.22,0A29.22,29.22,0,1,0,58.44,29.22,29.223,29.223,0,0,0,29.22,0ZM45.9,36.138a12.31,12.31,0,0,1-.78,4.073,8.579,8.579,0,0,1-4.907,4.907,12.319,12.319,0,0,1-4.073.78c-1.789.082-2.361.1-6.918.1s-5.128-.02-6.918-.1a12.319,12.319,0,0,1-4.073-.78,8.579,8.579,0,0,1-4.907-4.907,12.307,12.307,0,0,1-.78-4.073c-.082-1.79-.1-2.361-.1-6.918s.019-5.128.1-6.918a12.312,12.312,0,0,1,.779-4.073,8.585,8.585,0,0,1,4.908-4.907,12.322,12.322,0,0,1,4.073-.78c1.789-.082,2.361-.1,6.918-.1s5.128.02,6.918.1a12.324,12.324,0,0,1,4.073.779,8.582,8.582,0,0,1,4.907,4.908A12.309,12.309,0,0,1,45.9,22.3c.082,1.789.1,2.361.1,6.918S45.98,34.349,45.9,36.138Zm0,0" fill="#fff"/>
    </g>
  </g>
</svg>
