<svg xmlns="http://www.w3.org/2000/svg" width="25.438" height="22.471" viewBox="0 0 25.438 22.471">
  <g id="check-mark" transform="translate(0 -20.566)">
    <path id="Caminho_212" data-name="Caminho 212" d="M24.328,20.738c-1.148-.618-2.428.574-3.179,1.28-1.722,1.678-3.179,3.62-4.812,5.386-1.81,1.943-3.488,3.885-5.342,5.784A15.929,15.929,0,0,0,8.081,36.72a57.952,57.952,0,0,0-4.724-4.592c-1.28-.971-3.4-1.678-3.355.662C.09,35.837,2.783,39.1,4.769,41.179a5.042,5.042,0,0,0,3.223,1.854c1.545.088,3.135-1.766,4.062-2.781,1.634-1.766,2.958-3.753,4.459-5.563,1.943-2.384,3.929-4.724,5.828-7.152C23.533,26.036,27.286,22.328,24.328,20.738ZM1.944,32.615a.334.334,0,0,0-.177.044,2.148,2.148,0,0,1-.486-.177h0Q1.48,32.35,1.944,32.615Z" transform="translate(0 0)" fill="#0fc8af"/>
  </g>
</svg>
