<svg id="heart_1_" data-name="heart (1)" xmlns="http://www.w3.org/2000/svg" width="25.753" height="22.641" viewBox="0 0 25.753 22.641">
  <path id="Caminho_210" data-name="Caminho 210" d="M23.673,30.6a7.131,7.131,0,0,0-10.084.005l-.7.7L12.17,30.6a7.124,7.124,0,0,0-10.084-.011A7.124,7.124,0,0,0,2.1,40.67L12.35,50.924a.732.732,0,0,0,1.037.005L23.662,40.692A7.144,7.144,0,0,0,23.673,30.6Zm-1.048,9.047-9.756,9.718L3.134,39.633a5.652,5.652,0,1,1,7.993-7.993l1.234,1.234a.735.735,0,0,0,1.043,0l1.223-1.223a5.656,5.656,0,0,1,8,8Z" transform="translate(0 -28.501)" fill="#f92247"/>
</svg>
