<svg id="twitter" xmlns="http://www.w3.org/2000/svg" width="58.191" height="58.191" viewBox="0 0 58.191 58.191">
  <circle id="Elipse_25" data-name="Elipse 25" cx="29.095" cy="29.095" r="29.095" transform="translate(0 0)" fill="#fff"/>
  <g id="Agrupar_8" data-name="Agrupar 8" transform="translate(13.019 17.649)">
    <path id="Caminho_14" data-name="Caminho 14" d="M59,37.289a13.876,13.876,0,0,1-3.995,1.094,6.974,6.974,0,0,0,3.058-3.847,13.922,13.922,0,0,1-4.416,1.687A6.96,6.96,0,0,0,41.8,42.568,19.742,19.742,0,0,1,27.462,35.3a6.962,6.962,0,0,0,2.152,9.285,6.906,6.906,0,0,1-3.15-.871c0,.03,0,.059,0,.088a6.959,6.959,0,0,0,5.579,6.819,6.982,6.982,0,0,1-3.14.12,6.962,6.962,0,0,0,6.5,4.83,14.039,14.039,0,0,1-10.3,2.88,19.672,19.672,0,0,0,10.66,3.125c12.792,0,19.788-10.6,19.788-19.788,0-.3-.007-.6-.02-.9A14.1,14.1,0,0,0,59,37.289Z" transform="translate(-25.103 -34.028)" fill="#f22106"/>
  </g>
</svg>
